<svg width="2346" height="439" viewBox="0 0 2346 439" fill="none" xmlns="http://www.w3.org/2000/svg">
<path d="M793.124 158.871C793.124 135.194 812.318 116 835.995 116H948.09C961.998 116 973.272 127.274 973.272 141.182C973.272 155.353 970.571 168.747 965.167 181.351C962.207 188.242 924.713 194.659 889.871 200.599C856.34 206.316 856.394 222.184 889.934 227.843C924.758 233.718 962.209 240.107 965.167 247.008C970.571 259.586 973.272 272.954 973.272 287.126C973.272 306.833 957.296 322.809 937.589 322.809H846.445C816.996 322.809 793.124 298.936 793.124 269.488C793.124 262.695 790.677 256.846 785.783 251.952C780.89 247.059 774.938 244.612 767.942 244.612C767.942 244.612 767.891 244.612 767.789 244.612C767.687 244.612 767.534 244.612 767.33 244.612C753.423 244.612 742.148 255.886 742.148 269.794V283.71C742.148 305.304 724.643 322.809 703.05 322.809H623.171C589.387 322.809 562 295.421 562 261.638V177.171C562 143.387 589.387 116 623.171 116H708.275C726.983 116 742.148 131.166 742.148 149.873V158.565C742.148 172.472 753.423 183.747 767.33 183.747C767.534 183.747 767.687 183.747 767.789 183.747C767.891 183.747 767.942 183.747 767.942 183.747C774.938 183.747 780.89 181.3 785.783 176.406C790.677 171.513 793.124 165.676 793.124 158.871Z" fill="#FAF8F8"/>
<path fill-rule="evenodd" clip-rule="evenodd" d="M1282.97 116.03C1283.25 116.01 1283.53 116.001 1283.82 116.001H1600.43C1611.81 116.001 1622.45 118.116 1632.34 122.321C1642.23 126.501 1650.9 132.402 1658.39 140.01C1665.89 147.593 1671.79 156.322 1676.07 166.211C1680.38 176.1 1682.55 186.641 1682.55 197.817C1682.55 209.21 1680.38 219.864 1676.07 229.779C1671.79 239.668 1665.89 248.371 1658.39 255.877C1650.9 263.357 1642.23 269.234 1632.34 273.516C1622.45 277.798 1611.81 279.939 1600.43 279.939H1463.96C1457.21 279.939 1451.73 285.416 1451.73 292.173V310.574C1451.73 317.331 1446.25 322.809 1439.5 322.809H1283.82C1283.54 322.809 1283.26 322.794 1282.99 322.775C1282.1 322.796 1281.2 322.809 1280.3 322.809H1076.45C1062.07 322.809 1048.63 320.132 1036.12 314.754C1023.65 309.35 1012.7 301.908 1003.3 292.426C993.919 282.92 986.527 271.923 981.123 259.447C975.745 246.945 973.068 233.601 973.068 219.43C973.068 205.029 975.745 191.584 981.123 179.107C986.527 166.606 993.918 155.66 1003.3 146.28C1012.7 136.901 1023.65 129.509 1036.12 124.106C1048.63 118.703 1062.07 116.001 1076.45 116.001H1280.3C1281.19 116.001 1282.08 116.009 1282.97 116.03ZM1178.35 176.56C1171.38 176.56 1165.43 179.007 1160.51 183.901C1155.61 188.794 1153.17 194.744 1153.17 201.741V237.119C1153.17 243.886 1155.61 249.734 1160.51 254.653C1165.43 259.547 1171.38 261.994 1178.35 261.994C1185.34 261.994 1191.3 259.547 1196.19 254.653C1201.08 249.734 1203.53 243.886 1203.53 237.119V201.741C1203.53 194.745 1201.08 188.794 1196.19 183.901C1191.3 179.007 1185.34 176.56 1178.35 176.56ZM1463.96 176.56C1457.21 176.56 1451.73 182.038 1451.73 188.794V207.196C1451.73 213.952 1457.21 219.43 1463.96 219.43H1480.84C1486.2 219.43 1490.33 218.486 1493.22 216.574C1496.14 214.676 1498.25 212.433 1499.55 209.846C1500.83 207.234 1501.58 204.786 1501.79 202.505C1501.99 200.2 1502.09 198.633 1502.09 197.817C1502.09 197.244 1501.99 195.802 1501.79 193.482C1501.58 191.176 1500.83 188.729 1499.55 186.142C1498.25 183.53 1496.14 181.286 1493.22 179.413C1490.33 177.515 1486.2 176.56 1480.84 176.56H1463.96Z" fill="#FAF8F8"/>
<path d="M1920.5 237.118V189.405C1920.5 148.865 1953.37 116 1993.91 116H2027.25C2067.79 116 2100.65 148.865 2100.65 189.405V219.43C2100.65 233.601 2098 246.944 2092.7 259.446C2087.4 271.922 2079.98 282.92 2070.47 292.427C2060.99 301.909 2049.99 309.351 2037.49 314.754C2025.02 320.132 2011.6 322.809 1997.22 322.809H1793.42C1779.01 322.809 1765.55 320.132 1753.05 314.754C1740.57 309.351 1729.65 301.909 1720.27 292.427C1710.89 282.92 1703.5 271.922 1698.1 259.446C1692.69 246.944 1689.99 233.601 1689.99 219.43V189.405C1689.99 148.865 1722.86 116 1763.4 116H1796.73C1837.27 116 1870.14 148.865 1870.14 189.405V237.118C1870.14 243.885 1872.59 249.735 1877.48 254.654C1882.37 259.548 1888.31 261.995 1895.32 261.995C1902.32 261.995 1908.27 259.548 1913.16 254.654C1918.06 249.735 1920.5 243.885 1920.5 237.118Z" fill="#FAF8F8"/>
<path d="M2085.82 128.234C2085.82 121.477 2091.3 116 2098.05 116H2333.77C2340.52 116 2346 121.477 2346 128.234V171.673C2346 174.81 2344.79 177.827 2342.63 180.101L2284.44 241.332C2277.03 249.124 2282.55 261.995 2293.3 261.995H2333.77C2340.52 261.995 2346 267.472 2346 274.229V310.574C2346 317.331 2340.52 322.809 2333.77 322.809H2082.95C2081.28 322.809 2079.63 322.466 2078.1 321.801C2074.22 320.115 2071.55 316.514 2071.81 312.291C2072.33 303.73 2074.96 287.04 2085.82 261.995C2094.99 240.848 2117.85 217.032 2136.51 199.928C2145.14 192.022 2139.61 176.559 2127.91 176.559H2098.05C2091.3 176.559 2085.82 171.082 2085.82 164.325V128.234Z" fill="#FAF8F8"/>
<path d="M438.722 219.361C438.722 340.511 340.511 438.722 219.361 438.722C98.2113 438.722 0 340.511 0 219.361C0 98.2113 98.2113 0 219.361 0C340.511 0 438.722 98.2113 438.722 219.361Z" fill="#891111"/>
<path d="M420.676 26.2555C430.194 21.1278 442.072 24.6787 447.206 34.1866L456.501 51.4022L439.266 60.6866C429.747 65.8143 417.869 62.2634 412.736 52.7555C407.602 43.2476 411.157 31.3831 420.676 26.2555Z" fill="#FAF8F8"/>
<path d="M516.063 129.114C507.976 133.269 498.048 130.09 493.888 122.012L486.355 107.386L500.997 99.8621C509.084 95.7066 519.012 98.886 523.172 106.964C527.333 115.041 524.15 124.958 516.063 129.114Z" fill="#FAF8F8"/>
<path d="M478.98 137.072C473.483 139.897 466.733 137.735 463.905 132.244C461.076 126.752 463.24 120.009 468.739 117.184L478.693 112.069L483.814 122.012C486.643 127.504 484.478 134.246 478.98 137.072Z" fill="#FAF8F8"/>
<path d="M256.399 181.706L462.189 76.0873L501.353 90.5641L334.746 173.316L256.399 181.706Z" fill="#D9D9D9"/>
<path d="M500.997 71.5357L501.28 90.6372L346.902 171.239H337.531L364.778 147.96L500.997 71.5357Z" fill="#ADADAD"/>
<path d="M256.43 162.377L462.22 56.7587L501.355 71.5357L364.778 147.96L334.006 171.458L256.43 162.377Z" fill="#FAF8F8"/>
<path d="M371.427 151.275C372.439 160.809 364.778 166.511 361.067 173.316C354.364 189.059 352.761 191.475 350.098 209.17C337.531 292.66 308.317 334.591 240.217 349.444C153.289 358.645 38.7736 326.469 47.0212 230.817C54.2225 169.139 109.629 143.951 196.557 134.75C319.14 121.775 367.024 109.766 371.427 151.275Z" fill="#FAF8F8"/>
<path d="M329.48 282.909C289.766 370.665 156.859 371.901 121.576 356.996C63.5168 332.469 40.7058 293.869 47.0186 250.655C47.0186 250.655 73.0214 310.024 142.653 321.083C212.284 332.142 329.48 282.909 329.48 282.909Z" fill="#3C0505"/>
<path d="M104.662 107.405C133.466 96.1716 165.933 110.39 177.179 139.161L197.541 191.257L145.386 211.596C116.582 222.829 84.1144 208.611 72.8686 179.84C61.6228 151.068 75.857 118.638 104.662 107.405Z" fill="#3C0505"/>
</svg>
