<svg width="440" height="439" viewBox="0 0 440 439" fill="none" xmlns="http://www.w3.org/2000/svg">
<path d="M414.965 230.715C414.965 345.304 322.072 438.197 207.482 438.197C92.893 438.197 0 345.304 0 230.715C0 116.125 92.893 23.2325 207.482 23.2325C322.072 23.2325 414.965 116.125 414.965 230.715Z" fill="#891111"/>
<path d="M318.339 6.35511C325.717 -1.64644 338.186 -2.16161 346.19 5.20442L360.681 18.5418L347.322 33.0299C339.944 41.0314 327.474 41.5466 319.471 34.1806C311.467 26.8145 310.96 14.3567 318.339 6.35511Z" fill="#891111"/>
<path d="M435.537 66.0763C429.84 72.2956 420.405 72.5115 414.462 66.5587L403.701 55.78L414.015 44.5191C419.712 38.2998 429.147 38.0839 435.09 44.0368C441.033 49.9896 441.233 59.8571 435.537 66.0763Z" fill="#891111"/>
<path d="M406.961 77.2354C403.875 80.4543 398.763 80.5663 395.543 77.4853C392.323 74.4037 392.215 69.2958 395.301 66.0763L400.889 60.248L406.719 65.8272C409.939 68.9084 410.047 74.0162 406.961 77.2354Z" fill="#891111"/>
<path d="M220.614 193.346L372.389 35.1972L411.946 36.0787L288.219 161.646L220.614 193.346Z" fill="#D9D9D9"/>
<path d="M405.754 19.1403L411.903 36.1668L298.469 156.033L290.073 158.925L307.3 129.658L405.754 19.1403Z" fill="#ADADAD"/>
<path d="M214.676 176.019L366.45 17.8705L406.074 19.03L307.3 129.658L286.983 160.209L214.676 176.019Z" fill="#FAF8F8"/>
<path d="M314.28 130.576C318.129 138.806 313.026 146.279 311.802 153.521C310.655 169.695 309.965 172.355 313.04 189.03C327.552 267.711 314.321 314.296 257.892 348.623C182.849 383.699 70.3191 390.219 48.1837 301.975C35.5974 244.492 77.4639 204.823 152.506 169.747C258.328 120.285 297.522 94.7455 314.28 130.576Z" fill="#FAF8F8"/>
<path d="M317.329 261.46C308.835 352.342 190.141 394.474 153.928 392.011C94.3399 387.957 61.9874 360.414 54.3046 319.749C54.3046 319.749 95.9272 364.914 161.726 353.329C227.525 341.744 317.329 261.46 317.329 261.46Z" fill="#3C0505"/>
<path d="M61.7324 173.613C84.0723 154.658 117.55 157.375 136.506 179.681L170.83 220.071L130.38 254.392C108.04 273.347 74.5627 270.63 55.6063 248.324C36.6498 226.017 39.3925 192.568 61.7324 173.613Z" fill="#3C0505"/>
</svg>
